# xmcd
#
# Track frame offsets: 
#        150
#        18327
#        30242
#        44690
#        63135
#        81723
#        94616
#        115941
#        133963
#        153340
#        170133
#        189938
#        207658
#        223323
#        240933
#        255310
#
# Disc length: 3654 seconds
#
# Revision: 0
# Processed by: cddbd v1.5.2PL0 Copyright (c) Steve Scherf et al.
# Submitted via: ExactAudioCopy v1.1
#
DISCID=df0e4410
DTITLE=Cher - The Best
DYEAR=1900
DGENRE=Pop
TTITLE0=If I could turn back time
TTITLE1=Gypsys tramps thieves
TTITLE2=Oh no,not my beby
TTITLE3=Whenever your near
TTITLE4=Just like jesse jamp
TTITLE5=The shoops shoops song
TTITLE6=Love and undestading
TTITLE7=Save up all your teans
TTITLE8=Heart stone 
TTITLE9=I found someone
TTITLE10=Dead ringer for live
TTITLE11=We all seep alone
TTITLE12=Dark ledy
TTITLE13=Bang bang
TTITLE14=I got you babe
TTITLE15=Many rivers to cross
EXTD=
EXTT0=
EXTT1=
EXTT2=
EXTT3=
EXTT4=
EXTT5=
EXTT6=
EXTT7=
EXTT8=
EXTT9=
EXTT10=
EXTT11=
EXTT12=
EXTT13=
EXTT14=
EXTT15=
PLAYORDER=
